<svg width="32" height="32" viewBox="0 0 32 32" fill="none" xmlns="http://www.w3.org/2000/svg">
<g clip-path="url(#clip0_517_6499)">
<path d="M25.6 0V6.4L9.59953 6.4C7.8327 6.4 6.4 7.8327 6.4 9.59953L6.4 25.6H0L0 12.8L12.8 0L25.6 0Z" fill="#F0F1F5"/>
<path d="M6.39999 32.0004L6.39999 25.6004L22.4005 25.6004C24.1673 25.6004 25.6 24.1677 25.6 22.4009L25.6 6.40039L32 6.40039L32 19.2004L19.2 32.0004H6.39999Z" fill="#F0F1F5"/>
<path d="M6.40093 0L0 6.40093L0 1.59977C0 0.716815 0.716815 0 1.59977 0L6.40093 0Z" fill="#F0F1F5"/>
<path d="M32 25.5996V30.3998C32 31.2828 31.2832 31.9996 30.4002 31.9996H25.5991L32 25.5996Z" fill="#F0F1F5"/>
</g>
<defs>
<clipPath id="clip0_517_6499">
<rect width="32" height="32" fill="white"/>
</clipPath>
</defs>
</svg>
